<?xml version="1.0" encoding="utf-8"?>
<!-- Generator: Adobe Illustrator 16.0.0, SVG Export Plug-In . SVG Version: 6.00 Build 0)  -->
<!DOCTYPE svg PUBLIC "-//W3C//DTD SVG 1.1//EN" "http://www.w3.org/Graphics/SVG/1.1/DTD/svg11.dtd">
<svg version="1.1" id="Layer_1" xmlns="http://www.w3.org/2000/svg" xmlns:xlink="http://www.w3.org/1999/xlink" x="0px" y="0px"
	 width="32px" height="32px" viewBox="0 0 32 32" enable-background="new 0 0 32 32" xml:space="preserve">
<g>
	<path fill="none" stroke="#1A1A1A" stroke-width="2" stroke-miterlimit="10" d="M29.481,15.999c0,7.445-6.039,13.482-13.481,13.482
		c-7.443,0-13.481-6.037-13.481-13.482c0-7.444,6.038-13.48,13.481-13.48C23.442,2.519,29.481,8.555,29.481,15.999z"/>
	<g>
		<path d="M10.96,18.841L10.302,20.5H7.95l3.883-9h2.354l3.793,9h-2.443l-0.644-1.659H10.96z M12.938,13.775l-1.311,3.33h2.597
			L12.938,13.775z"/>
		<path d="M21.89,17.003v2.16h-1.401v-2.16h-2.147v-1.402h2.147v-2.16h1.401v2.16h2.16v1.402H21.89z"/>
	</g>
</g>
<g>
</g>
<g>
</g>
<g>
</g>
<g>
</g>
<g>
</g>
<g>
</g>
<g>
</g>
<g>
</g>
<g>
</g>
<g>
</g>
<g>
</g>
<g>
</g>
<g>
</g>
<g>
</g>
<g>
</g>
</svg>
