<?xml version="1.0" encoding="utf-8"?>
<!-- Generator: Adobe Illustrator 16.0.0, SVG Export Plug-In . SVG Version: 6.00 Build 0)  -->
<!DOCTYPE svg PUBLIC "-//W3C//DTD SVG 1.1//EN" "http://www.w3.org/Graphics/SVG/1.1/DTD/svg11.dtd">
<svg version="1.1" id="Layer_1" xmlns="http://www.w3.org/2000/svg" xmlns:xlink="http://www.w3.org/1999/xlink" x="0px" y="0px"
	 width="32px" height="32px" viewBox="0 0 32 32" enable-background="new 0 0 32 32" xml:space="preserve">
<g>
	<path fill="none" stroke="#1A1A1A" stroke-width="2" stroke-miterlimit="10" d="M29.48,16c0,7.444-6.037,13.481-13.481,13.481
		c-7.442,0-13.48-6.037-13.48-13.481S8.557,2.519,16,2.519C23.443,2.519,29.48,8.556,29.48,16z"/>
	<g id="XMLID_1_">
		<path id="XMLID_4_" d="M20.668,11.808h-0.352V9.011c0-0.282-0.229-0.511-0.514-0.511h-7.606c-0.283,0-0.514,0.229-0.514,0.511
			v2.797h-0.352c-0.773,0-1.401,0.626-1.401,1.396v3.844c0,0.771,0.628,1.396,1.401,1.396h0.352v4.545
			c0,0.281,0.23,0.512,0.514,0.512h7.606c0.285,0,0.514-0.23,0.514-0.512v-4.545h0.352c0.775,0,1.402-0.625,1.402-1.395v-3.846
			C22.07,12.434,21.443,11.808,20.668,11.808z M11.972,17.171c-0.104,0-0.2-0.025-0.289-0.062c-0.246-0.111-0.417-0.355-0.417-0.641
			s0.171-0.53,0.417-0.641c0.089-0.039,0.186-0.062,0.289-0.062c0.389,0,0.704,0.315,0.704,0.703
			C12.676,16.856,12.361,17.171,11.972,17.171z M19.291,22.478h-6.583v-4.033h6.583V22.478L19.291,22.478z M19.291,11.808h-6.583
			V9.521h6.583V11.808L19.291,11.808z"/>
		<path id="XMLID_3_" d="M14.12,20.019h3.759c0.215,0,0.387-0.172,0.387-0.383s-0.172-0.383-0.387-0.383H14.12
			c-0.212,0-0.384,0.172-0.384,0.383S13.908,20.019,14.12,20.019z"/>
		<path id="XMLID_2_" d="M14.12,21.552h3.759c0.215,0,0.387-0.172,0.387-0.383c0-0.213-0.172-0.385-0.387-0.385H14.12
			c-0.212,0-0.384,0.172-0.384,0.385C13.736,21.38,13.908,21.552,14.12,21.552z"/>
	</g>
</g>
</svg>
