<?xml version="1.0" encoding="utf-8"?>
<!-- Generator: Adobe Illustrator 16.0.0, SVG Export Plug-In . SVG Version: 6.00 Build 0)  -->
<!DOCTYPE svg PUBLIC "-//W3C//DTD SVG 1.1//EN" "http://www.w3.org/Graphics/SVG/1.1/DTD/svg11.dtd">
<svg version="1.1" id="Layer_1" xmlns="http://www.w3.org/2000/svg" xmlns:xlink="http://www.w3.org/1999/xlink" x="0px" y="0px"
	 width="32px" height="32px" viewBox="0 0 32 32" enable-background="new 0 0 32 32" xml:space="preserve">
<g>
	<path fill="none" stroke="#1A1A1A" stroke-width="2" stroke-miterlimit="10" d="M29.48,16c0,7.444-6.037,13.481-13.481,13.481
		c-7.442,0-13.48-6.037-13.48-13.481S8.557,2.519,16,2.519C23.443,2.519,29.48,8.556,29.48,16z"/>
	<g>
		<path d="M19.561,18.896c-0.535,0-1.012,0.211-1.379,0.539l-5.01-2.914c0.035-0.162,0.063-0.324,0.063-0.492
			s-0.028-0.33-0.063-0.492l4.956-2.889c0.379,0.35,0.877,0.568,1.434,0.568c1.166,0,2.107-0.939,2.107-2.108
			C21.668,9.941,20.727,9,19.561,9c-1.168,0-2.109,0.941-2.109,2.107c0,0.171,0.029,0.329,0.064,0.492l-4.957,2.891
			c-0.38-0.353-0.878-0.57-1.434-0.57c-1.167,0-2.108,0.942-2.108,2.108s0.941,2.107,2.108,2.107c0.556,0,1.054-0.219,1.433-0.568
			l5.004,2.922c-0.035,0.148-0.057,0.305-0.057,0.459c0,1.131,0.922,2.053,2.053,2.053s2.053-0.92,2.053-2.053
			S20.689,18.896,19.561,18.896z"/>
	</g>
</g>
</svg>
