<?xml version="1.0" encoding="utf-8"?>
<!-- Generator: Adobe Illustrator 16.0.0, SVG Export Plug-In . SVG Version: 6.00 Build 0)  -->
<!DOCTYPE svg PUBLIC "-//W3C//DTD SVG 1.1//EN" "http://www.w3.org/Graphics/SVG/1.1/DTD/svg11.dtd">
<svg version="1.1" id="Layer_1" xmlns="http://www.w3.org/2000/svg" xmlns:xlink="http://www.w3.org/1999/xlink" x="0px" y="0px"
	 width="32px" height="32px" viewBox="0 0 32 32" enable-background="new 0 0 32 32" xml:space="preserve">
<g>
	<path fill="none" stroke="#1A1A1A" stroke-width="2" stroke-miterlimit="10" d="M29.481,16c0,7.444-6.039,13.481-13.481,13.481
		C8.557,29.481,2.519,23.444,2.519,16S8.557,2.519,16,2.519C23.442,2.519,29.481,8.556,29.481,16z"/>
</g>
<g>
	<g>
		<path d="M22.256,15.999V8.797H9.744v14.406h12.512V15.999L22.256,15.999z M20.775,21.723h-9.551V10.277h9.551V21.723
			L20.775,21.723z"/>
		<path d="M12.568,12.525h2.891c0.272,0,0.493-0.221,0.493-0.493s-0.221-0.493-0.493-0.493h-2.891c-0.272,0-0.493,0.221-0.493,0.493
			S12.295,12.525,12.568,12.525z"/>
		<path d="M12.568,14.509h2.891c0.272,0,0.493-0.221,0.493-0.493c0-0.271-0.221-0.493-0.493-0.493h-2.891
			c-0.272,0-0.493,0.222-0.493,0.493C12.075,14.288,12.295,14.509,12.568,14.509z"/>
		<path d="M12.568,16.493h6.938c0.271,0,0.494-0.223,0.494-0.494c0-0.273-0.223-0.493-0.494-0.493h-6.938
			c-0.272,0-0.493,0.22-0.493,0.493C12.075,16.271,12.295,16.493,12.568,16.493z"/>
		<path d="M12.568,18.477h6.938c0.271,0,0.494-0.221,0.494-0.494c0-0.271-0.223-0.492-0.494-0.492h-6.938
			c-0.272,0-0.493,0.221-0.493,0.492C12.075,18.256,12.295,18.477,12.568,18.477z"/>
		<path d="M12.568,20.459h6.938c0.271,0,0.494-0.219,0.494-0.492s-0.223-0.494-0.494-0.494h-6.938c-0.272,0-0.493,0.221-0.493,0.494
			C12.075,20.238,12.295,20.459,12.568,20.459z"/>
		<rect x="16.945" y="11.539" width="3.055" height="3.083"/>
	</g>
</g>
</svg>
